<?xml version="1.0" encoding="UTF-8" standalone="no"?>
<!-- Created with Inkscape (http://www.inkscape.org/) -->

<svg
   xmlns:dc="http://purl.org/dc/elements/1.1/"
   xmlns:cc="http://creativecommons.org/ns#"
   xmlns:rdf="http://www.w3.org/1999/02/22-rdf-syntax-ns#"
   xmlns:svg="http://www.w3.org/2000/svg"
   xmlns="http://www.w3.org/2000/svg"
   xmlns:sodipodi="http://sodipodi.sourceforge.net/DTD/sodipodi-0.dtd"
   xmlns:inkscape="http://www.inkscape.org/namespaces/inkscape"
   width="2"
   height="2"
   id="svg2"
   version="1.1"
   inkscape:version="0.48.4 r9939"
   sodipodi:docname="New document 1">
  <defs
     id="defs4" />
  <sodipodi:namedview
     id="base"
     pagecolor="#ffffff"
     bordercolor="#666666"
     borderopacity="1.0"
     inkscape:pageopacity="0.0"
     inkscape:pageshadow="2"
     inkscape:zoom="181.01934"
     inkscape:cx="0.71628256"
     inkscape:cy="0.77287675"
     inkscape:document-units="px"
     inkscape:current-layer="layer1"
     showgrid="false"
     inkscape:snap-bbox="true"
     inkscape:snap-global="false"
     inkscape:window-width="792"
     inkscape:window-height="663"
     inkscape:window-x="83"
     inkscape:window-y="39"
     inkscape:window-maximized="0">
    <inkscape:grid
       type="xygrid"
       id="grid3765"
       empspacing="5"
       visible="true"
       enabled="true"
       snapvisiblegridlinesonly="true"
       spacingx="0.01px"
       spacingy="0.01px" />
  </sodipodi:namedview>
  <metadata
     id="metadata7">
    <rdf:RDF>
      <cc:Work
         rdf:about="">
        <dc:format>image/svg+xml</dc:format>
        <dc:type
           rdf:resource="http://purl.org/dc/dcmitype/StillImage" />
        <dc:title></dc:title>
      </cc:Work>
    </rdf:RDF>
  </metadata>
  <g
     inkscape:label="Layer 1"
     inkscape:groupmode="layer"
     id="layer1"
     transform="translate(0,-1050.3622)">
    <path
       style="fill:none;stroke:#000000;stroke-width:0.01;stroke-linecap:butt;stroke-linejoin:miter;stroke-miterlimit:4;stroke-opacity:1;stroke-dasharray:none"
       d="m 0.89649223,1052.3298 0,-0.2105 0.21056947,0 0,0.2105 0.4211389,0 0,-0.2105 0.2105695,0 0,-0.2107 0.2105695,0 0,-0.2105 0,-0.2106 -0.2105695,0 0,-0.2105 0.2105695,0 0,-0.2107 0,-0.2105 -0.2105695,0 0,-0.2106 -0.2105695,0 0,-0.2105 -0.4211389,0 0,0.2105 -0.21056947,0 0,-0.2105 -0.21056946,0 -0.21056946,0 0,0.2105 -0.21056947,0 0,0.2106 -0.21056946,0 0,0.2105 0,0.2107 0.21056946,0 0,0.2105 -0.21056946,0 0,0.2106 0,0.2105 0.21056946,0 0,0.2107 0.21056947,0 0,0.2105 z"
       id="path3767"
       inkscape:connector-curvature="0"
       sodipodi:nodetypes="cccccccccccccccccccccccccccccccccccccccccc" />
    <path
       style="fill:none;stroke:#000000;stroke-width:0.01;stroke-linecap:butt;stroke-linejoin:miter;stroke-miterlimit:4;stroke-opacity:1;stroke-dasharray:none"
       d="m 0.33497367,1050.7857 0,0.2806 0.14037964,0 0,-0.2806 z"
       id="path3769"
       inkscape:connector-curvature="0" />
    <path
       inkscape:connector-curvature="0"
       id="path3771"
       d="m 0.33497367,1051.6981 0,0.2807 0.14037964,0 0,-0.2807 z"
       style="fill:none;stroke:#000000;stroke-width:0.01;stroke-linecap:butt;stroke-linejoin:miter;stroke-miterlimit:4;stroke-opacity:1;stroke-dasharray:none" />
    <path
       inkscape:connector-curvature="0"
       id="path3773"
       d="m 1.5282006,1050.7857 0,0.2806 0.1403796,0 0,-0.2806 z"
       style="fill:none;stroke:#000000;stroke-width:0.01;stroke-linecap:butt;stroke-linejoin:miter;stroke-miterlimit:4;stroke-opacity:1;stroke-dasharray:none" />
    <path
       style="fill:none;stroke:#000000;stroke-width:0.01;stroke-linecap:butt;stroke-linejoin:miter;stroke-miterlimit:4;stroke-opacity:1;stroke-dasharray:none"
       d="m 1.5282006,1051.6981 0,0.2807 0.1403796,0 0,-0.2807 z"
       id="path3775"
       inkscape:connector-curvature="0" />
    <path
       style="fill:none;stroke:#000000;stroke-width:0.01;stroke-miterlimit:4;stroke-opacity:1;stroke-dasharray:none"
       d="m 0.75611259,1051.9788 0.14037964,0 0,-0.1403 -0.28075928,0 0,0.2808 0.14037964,0 z"
       id="path3777"
       inkscape:connector-curvature="0" />
    <path
       inkscape:connector-curvature="0"
       id="path3779"
       d="m 1.2474413,1051.9788 -0.1403796,0 0,-0.1403 0.2807593,0 0,0.2808 -0.1403797,0 z"
       style="fill:none;stroke:#000000;stroke-width:0.01;stroke-miterlimit:4;stroke-opacity:1;stroke-dasharray:none" />
    <path
       inkscape:connector-curvature="0"
       id="path3781"
       d="m 0.75611259,1050.7857 0.14037964,0 0,0.1403 -0.28075928,0 0,-0.2808 0.14037964,0 z"
       style="fill:none;stroke:#000000;stroke-width:0.01;stroke-miterlimit:4;stroke-opacity:1;stroke-dasharray:none" />
    <path
       style="fill:none;stroke:#000000;stroke-width:0.01;stroke-miterlimit:4;stroke-opacity:1;stroke-dasharray:none"
       d="m 1.2474413,1050.7857 -0.1403796,0 0,0.1403 0.2807593,0 0,-0.2808 -0.1403797,0 z"
       id="path3783"
       inkscape:connector-curvature="0" />
    <path
       style="fill:none;stroke:#000000;stroke-width:0.01;stroke-miterlimit:4;stroke-opacity:1;stroke-dasharray:none"
       d="m 0.47284657,1051.2068 0,0.4211 0.28577284,0 0,-0.4914 -0.28577286,0 z"
       id="path3785"
       inkscape:connector-curvature="0" />
    <path
       inkscape:connector-curvature="0"
       id="path3787"
       d="m 1.2449346,1051.2068 0,0.4211 0.285773,0 0,-0.4914 -0.285773,0 z"
       style="fill:none;stroke:#000000;stroke-width:0.01;stroke-miterlimit:4;stroke-opacity:1;stroke-dasharray:none" />
  </g>
</svg>
